<svg width="32" height="30" viewBox="0 0 32 30" fill="none" xmlns="http://www.w3.org/2000/svg">
<path d="M20.6056 3.2543C22.5622 5.05474 23.7867 7.41807 24.0745 9.94897C24.3622 12.4799 23.6957 15.0248 22.1864 17.1581C22.4499 17.3599 22.6695 17.5819 22.9769 17.7837C23.416 18.1066 24.0088 18.5102 24.7553 18.9743C25.5018 19.4586 25.9848 19.7613 26.2044 19.9228C27.1265 20.5483 27.8072 21.073 28.2682 21.4968C28.9708 22.1425 29.5856 22.8085 30.1125 23.5148C30.6614 24.2211 31.0786 24.9072 31.4079 25.6135C31.7153 26.3198 31.869 26.9857 31.8031 27.6314C31.7592 28.2772 31.4957 28.822 31.0127 29.266C30.5297 29.71 29.9369 29.9521 29.2343 29.9925C28.5537 30.0328 27.8072 29.9117 27.0607 29.6091C26.2922 29.3265 25.5237 28.9229 24.7772 28.4184C24.0088 27.9341 23.2842 27.3691 22.5816 26.7234C22.1206 26.2996 21.5497 25.674 20.891 24.8466C20.6715 24.5843 20.3421 24.1403 19.8591 23.5148C19.3761 22.869 18.9809 22.3645 18.6296 21.9407C18.2783 21.5372 17.9929 21.2345 17.6635 20.9318C15.3846 22.0285 12.7843 22.4281 10.2412 22.0724C7.69799 21.7167 5.34473 20.6243 3.52392 18.9541C-1.17464 14.6155 -1.17464 7.57276 3.52392 3.2543C4.64504 2.22264 5.97642 1.40421 7.44192 0.845815C8.90743 0.287417 10.4783 0 12.0648 0C13.6512 0 15.2221 0.287417 16.6876 0.845815C18.1531 1.40421 19.4845 2.22264 20.6056 3.2543ZM17.5098 16.0886C18.9442 14.7607 19.7491 12.9653 19.7491 11.0941C19.7491 9.22292 18.9442 7.4276 17.5098 6.09964C16.797 5.44251 15.95 4.92113 15.0176 4.56539C14.0851 4.20964 13.0854 4.02652 12.0757 4.02652C11.0661 4.02652 10.0664 4.20964 9.13394 4.56539C8.20145 4.92113 7.35452 5.44251 6.64166 6.09964C5.92669 6.75483 5.35942 7.53325 4.97236 8.3903C4.5853 9.24735 4.38607 10.1662 4.38607 11.0941C4.38607 12.0221 4.5853 12.9409 4.97236 13.798C5.35942 14.655 5.92669 15.4334 6.64166 16.0886C7.35452 16.7458 8.20145 17.2671 9.13394 17.6229C10.0664 17.9786 11.0661 18.1617 12.0757 18.1617C13.0854 18.1617 14.0851 17.9786 15.0176 17.6229C15.95 17.2671 16.797 16.7458 17.5098 16.0886Z" fill="#C6C6C6"/>
</svg>
